<mxfile host="app.diagrams.net" modified="2024-02-08T22:24:58.590Z" agent="Mozilla/5.0 (Windows NT 10.0; Win64; x64) AppleWebKit/537.36 (KHTML, like Gecko) Chrome/121.0.0.0 Safari/537.36" version="23.1.2" etag="NkW7a2QuhvKBDLaIzaMo" type="github">
  <diagram name="PÃ¡gina-1" id="AJ_QSlxrf31mamBT1rxM">
    <mxGraphModel>
      <root>
        <mxCell id="0" />
        <mxCell id="1" parent="0" />
      </root>
    </mxGraphModel>
  </diagram>
</mxfile>
